Coordinates
version=1
nRows=6
nColumns=46
inDegrees=yes

Units are S.I. units (second, meters, Newtons, ...)
Angles are in degrees.

endheader
time	pelvis_tilt	pelvis_list	pelvis_rotation	pelvis_tx	pelvis_ty	pelvis_tz	bb_angle	bb_tx	bb_ty	bb_tz	hip_flexion_r	hip_adduction_r	hip_rotation_r	knee_angle_r	knee_angle_r_beta	ankle_angle_r	subtalar_angle_r	mtp_angle_r	crank_angle_r	hip_flexion_l	hip_adduction_l	hip_rotation_l	knee_angle_l	knee_angle_l_beta	ankle_angle_l	subtalar_angle_l	mtp_angle_l	crank_angle_l	lumbar_extension	lumbar_bending	lumbar_rotation	arm_flex_r	arm_add_r	arm_rot_r	elbow_flex_r	pro_sup_r	wrist_flex_r	wrist_dev_r	arm_flex_l	arm_add_l	arm_rot_l	elbow_flex_l	pro_sup_l	wrist_flex_l	wrist_dev_l
      0.00000000	     -9.60697700	     -2.86644791	      0.03792482	      0.05610939	      1.15738229	     -0.24483387	      0.00000000	      0.50000000	      0.00000000	      0.25000000	     75.05547098	     -1.46500739	      1.48908584	     84.42340490	      1.47346638	      7.51230848	     -6.73097115	      0.00000000	      0.00000000	     39.47120405	     -6.46293618	      1.50143135	     64.97627482	      1.13404993	     16.95900032	     -6.26639818	      0.00000000	      0.00000000	    -58.17411053	      2.10183434	      2.25720143	     89.23521158	    -11.90682799	     47.13963159	     37.17211545	     33.74014943	      0.00000000	      0.00000000	     89.45096791	    -12.71580411	     49.09771793	     32.66744621	     32.36916832	      0.00000000	      0.00000000
      0.00500000	     -9.80625350	     -2.99974172	      0.08932687	      0.05604767	      1.15689133	     -0.24487139	      0.00000000	      0.50000000	      0.00000000	      0.25000000	     75.30173627	     -1.46430771	      1.33858867	     84.47267311	      1.47432627	      7.45514379	     -6.82919739	      0.00000000	      0.00000000	     39.78151626	     -6.55146686	      1.64100430	     65.07773289	      1.13582071	     16.87227494	     -6.32168169	      0.00000000	      0.00000000	    -57.89872686	      2.24825438	      2.36272949	     89.25875124	    -12.23612164	     48.11652868	     37.24866533	     34.29801525	      0.00000000	      0.00000000	     89.47443990	    -13.05176521	     50.54193553	     32.69224629	     32.94571557	      0.00000000	      0.00000000
      0.01000000	     -9.80902645	     -2.98137512	      0.06506186	      0.05607075	      1.15689711	     -0.24485586	      0.00000000	      0.50000000	      0.00000000	      0.25000000	     75.33026888	     -1.44149201	      1.37337176	     84.51878354	      1.47513105	      7.47221008	     -6.81712873	      0.00000000	      0.00000000	     39.76530552	     -6.54793765	      1.60940324	     65.03684496	      1.13510708	     16.83395402	     -6.31016598	      0.00000000	      0.00000000	    -57.89881623	      2.21737055	      2.37780129	     89.25955642	    -12.30944105	     48.16168816	     37.23153207	     34.92849672	      0.00000000	      0.00000000	     89.47886489	    -13.06471914	     50.58118390	     32.60440439	     33.59856295	      0.00000000	      0.00000000
      0.01500000	     -9.77151239	     -2.98089332	      0.01356387	      0.05601328	      1.15687165	     -0.24478154	      0.00000000	      0.50000000	      0.00000000	      0.25000000	     75.32640721	     -1.36731020	      1.43151061	     84.59845773	      1.47652163	      7.61677166	     -6.70037756	      0.00000000	      0.00000000	     39.71379168	     -6.55621415	      1.62711660	     65.01443706	      1.13471599	     16.80712062	     -6.35425592	      0.00000000	      0.00000000	    -57.91316570	      2.18160365	      2.34490170	     89.25822952	    -12.12669635	     47.83165607	     36.86493885	     35.85865038	      0.00000000	      0.00000000	     89.47314908	    -12.95976381	     49.69985228	     32.22675892	     34.54019532	      0.00000000	      0.00000000
      0.02000000	     -9.93359145	     -3.88693731	     -0.17382579	      0.05595319	      1.15569107	     -0.24318590	      0.00000000	      0.50000000	      0.00000000	      0.25000000	     75.45223460	     -0.53463987	      0.70849412	     84.52987202	      1.47532458	      7.39633351	     -7.35530258	      0.00000000	      0.00000000	     40.31471395	     -7.39737178	      2.31639096	     65.53138408	      1.14373842	     16.53519424	     -4.11393592	      0.00000000	      0.00000000	    -57.70454062	      2.52229582	      3.20696751	     89.24966910	    -12.22495500	     48.10609155	     36.94978768	     35.88956403	      0.00000000	      0.00000000	     89.45880379	    -13.09387171	     50.16209340	     32.42699548	     34.58919274	      0.00000000	      0.00000000
      0.02500000	    -10.01141823	     -4.04198451	     -0.15468859	      0.05572552	      1.15517124	     -0.24318985	      0.00000000	      0.50000000	      0.00000000	      0.25000000	     75.61910186	     -0.48617468	      0.57462873	     84.63837071	      1.47721824	      7.36295036	     -7.46131333	      0.00000000	      0.00000000	     40.38490999	     -6.85869410	      3.26601229	     65.45781215	      1.14245434	     16.15551247	     -5.97040174	      0.00000000	      0.00000000	    -57.56110251	      2.64936032	      3.31817585	     89.25258574	    -12.20782910	     48.15662990	     36.78088827	     36.15622477	      0.00000000	      0.00000000	     89.45980776	    -13.09482966	     50.39574752	     32.19579095	     34.87952047	      0.00000000	      0.00000000
